<?xml version="1.0" standalone="no"?>
<!DOCTYPE svg PUBLIC "-//W3C//DTD SVG 20010904//EN"
 "http://www.w3.org/TR/2001/REC-SVG-20010904/DTD/svg10.dtd">
<svg version="1.0" xmlns="http://www.w3.org/2000/svg"
 width="330.000000pt" height="330.000000pt" viewBox="0 0 330.000000 330.000000"
 preserveAspectRatio="xMidYMid meet">
<metadata>
Created by potrace 1.14, written by Peter Selinger 2001-2017
</metadata>
<g transform="translate(0.000000,330.000000) scale(0.100000,-0.100000)"
fill="#000000" stroke="none">
<path d="M0 1650 l0 -1650 1650 0 1650 0 0 1650 0 1650 -1650 0 -1650 0 0
-1650z m1825 1156 c281 -23 530 -182 640 -411 58 -121 70 -181 70 -355 0 -179
-12 -236 -78 -370 -33 -68 -58 -102 -127 -171 -71 -71 -101 -94 -180 -132
-173 -86 -201 -90 -630 -96 l-375 -6 -3 -443 -2 -442 -198 2 -197 3 0 1209
c-1 1133 1 1209 17 1215 20 7 964 5 1063 -3z"/>
<path d="M1145 2457 c-3 -6 -4 -199 -3 -427 l3 -415 265 -3 c316 -3 398 5 497
52 128 61 202 163 224 309 37 246 -109 448 -351 486 -98 16 -629 14 -635 -2z"/>
</g>
</svg>
