<?xml version="1.0" standalone="no"?>
<!DOCTYPE svg PUBLIC "-//W3C//DTD SVG 20010904//EN"
 "http://www.w3.org/TR/2001/REC-SVG-20010904/DTD/svg10.dtd">
<svg version="1.0" xmlns="http://www.w3.org/2000/svg"
 width="680.000000pt" height="680.000000pt" viewBox="0 0 680.000000 680.000000"
 preserveAspectRatio="xMidYMid meet">
<metadata>
Created by potrace 1.14, written by Peter Selinger 2001-2017
</metadata>
<g transform="translate(0.000000,680.000000) scale(0.100000,-0.100000)"
fill="#000000" stroke="none">
<path d="M3309 6536 c-2 -2 -40 -7 -84 -10 -44 -4 -93 -9 -110 -11 -37 -5
-128 -18 -135 -20 -3 -1 -25 -5 -50 -9 -254 -46 -563 -153 -805 -280 -158 -83
-357 -207 -422 -262 -12 -11 -34 -28 -49 -39 -15 -11 -32 -24 -38 -30 -6 -5
-40 -35 -75 -65 -36 -30 -92 -81 -125 -112 -33 -32 -65 -58 -70 -58 -5 0 -95
18 -200 41 -163 35 -202 40 -266 35 -41 -3 -84 -8 -95 -10 -11 -2 -42 -7 -70
-11 -27 -5 -52 -9 -55 -10 -3 -1 -25 -5 -50 -9 -25 -5 -54 -10 -65 -13 -11 -2
-31 -6 -45 -8 -14 -2 -40 -9 -58 -14 -18 -5 -36 -10 -40 -11 -48 -6 -83 -14
-87 -20 -12 -19 419 -168 694 -240 24 -6 55 -16 68 -21 l25 -9 -29 -38 c-16
-20 -53 -73 -82 -117 -29 -43 -58 -80 -64 -81 -368 -67 -626 -163 -786 -292
-25 -20 -24 -20 302 -16 180 2 327 0 327 -3 0 -4 -16 -46 -36 -93 -52 -124
-51 -121 -67 -170 -21 -63 -66 -210 -72 -237 -7 -34 -12 -55 -20 -85 -4 -17
-33 -49 -74 -82 -211 -173 -423 -460 -481 -653 -32 -107 -29 -110 65 -62 44
22 107 57 140 76 33 20 108 64 167 99 l108 63 1 -117 c2 -173 9 -277 30 -424
l11 -77 -51 -119 c-142 -330 -186 -675 -135 -1042 9 -60 35 -144 57 -179 l20
-34 18 35 c10 20 36 80 58 134 59 148 127 307 182 424 l50 104 61 -124 c102
-210 242 -428 379 -592 32 -39 59 -73 60 -77 1 -3 2 -57 4 -119 9 -365 71
-604 208 -809 23 -35 45 -63 50 -63 4 0 7 24 8 53 2 156 40 449 72 556 l12 41
100 -75 c263 -199 537 -343 859 -450 l158 -54 36 -53 c98 -148 215 -257 408
-384 152 -100 286 -162 398 -185 54 -11 100 -18 102 -17 3 4 -37 88 -59 123
-6 10 -64 97 -127 192 -63 95 -123 186 -132 201 l-17 27 180 -1 179 -2 29 -28
c217 -222 478 -367 819 -453 86 -22 225 -51 229 -47 2 1 -29 28 -68 60 -116
96 -163 168 -183 284 -3 17 -3 32 0 32 3 0 40 -27 82 -59 42 -33 118 -85 167
-116 88 -55 334 -182 394 -203 29 -10 30 -10 45 36 33 104 43 260 21 362 -21
104 -78 272 -140 417 -37 86 -48 123 -39 127 21 8 117 -19 184 -53 68 -34 151
-92 209 -145 32 -29 31 -26 -16 44 -60 91 -132 202 -161 251 l-22 36 99 76
c403 309 729 730 929 1197 117 272 202 607 229 895 15 161 8 566 -12 675 -2
14 -7 43 -10 65 -2 22 -9 63 -15 90 -5 28 -12 61 -14 75 -16 88 -84 330 -98
348 -6 6 -8 12 -5 12 10 0 -73 202 -134 329 -213 439 -533 822 -929 1113 -199
146 -487 302 -715 387 -179 66 -430 133 -585 155 -67 9 -125 17 -165 22 -47 6
-491 15 -496 10z"/>
</g>
</svg>
